<?xml version="1.0"?>
<svg version="1.1" xmlns="http://www.w3.org/2000/svg" width="164" height="149" style=""><path fill="#080501" d="M49.921,98.705l0,3.995l-14.946,0l0-3.995l3.525-1.269l-1.128-3.431l-10.434,0l-1.175,3.384l3.666,1.316l0,3.995l-14.194,0l0-3.995l3.431-1.316l10.34-27.683l7.52-0.141l10.105,27.824z M35.821,88.976l-3.525-11.139l-3.713,11.139l7.238,0z M55.30297,102.7l0-3.995l3.525-1.41l0-22.09l-3.525-1.41l0-3.995l14.335-0.235l0,4.23l-3.525,1.41l0,22.09l3.525,1.41l0,3.995l-14.335,0z M80.89494,77.79l0-2.115c0-5.969,3.431-9.964,10.105-9.964c5.076,0,8.319,1.739,8.319,1.739l-0.141,6.909l-4.23,0l-0.705-3.29s-1.128-0.188-2.679-0.188c-2.585,0-3.619,1.551-3.619,3.995l0,2.914l6.11,0l-0.141,4.7l-5.969,0l0,15.275l4.7,1.175l0,3.76l-15.51,0l0-3.76l3.76-1.175l0-15.275l-4.23,0l0-3.995z M100.00091,81.315l0-3.76l12.549-0.235l0,3.995l-2.632,0.47l4.183,13.16l3.995-13.019l-2.726-0.611l0-3.76l12.643-0.235l0,3.995l-2.914,0.611l-6.909,19.27c-2.256,6.204-5.311,12.784-12.784,12.784c-1.598,0-4.559-0.376-4.559-0.376l0.658-5.029l3.055,0c3.76,0,5.499-3.995,6.298-5.828l-8.366-20.68z"/><path fill="#" d=""/></svg>
